<?xml version="1.0" encoding="UTF-8"?>
<svg clip-rule="evenodd" fill-rule="evenodd" stroke-linejoin="round" stroke-miterlimit="2" viewBox="0 0 166 41" fill="#718096">
<path d="m7.379 33.774c0 1.419-0.362 2.617-1.088 3.595-0.725 0.978-1.584 1.727-2.578 2.247-0.993 0.52-1.931 0.78-2.814 0.78-0.284 0-0.505-0.086-0.662-0.26-0.158-0.173-0.237-0.37-0.237-0.591v-0.095c0-0.252 0.087-0.457 0.26-0.615 0.174-0.157 0.371-0.252 0.591-0.283 0.694-0.127 1.396-0.363 2.105-0.71 0.71-0.347 1.309-0.851 1.798-1.514 0.489-0.662 0.733-1.513 0.733-2.554v-25.449c0-0.252 0.087-0.473 0.26-0.662 0.174-0.189 0.402-0.284 0.686-0.284s0.513 0.095 0.686 0.284 0.26 0.41 0.26 0.662v25.449zm-0.946-30.368c-0.504 0-0.906-0.142-1.206-0.426s-0.449-0.646-0.449-1.088v-0.378c0-0.442 0.157-0.804 0.473-1.088 0.315-0.284 0.725-0.426 1.229-0.426 0.442 0 0.812 0.142 1.112 0.426s0.449 0.646 0.449 1.088v0.378c0 0.442-0.149 0.804-0.449 1.088s-0.686 0.426-1.159 0.426z" fill-rule="nonzero"/>
<path d="m36.849 19.11c0 2.334-0.505 4.439-1.514 6.315s-2.389 3.359-4.139 4.447-3.745 1.632-5.984 1.632c-2.207 0-4.194-0.544-5.96-1.632s-3.161-2.571-4.186-4.447-1.537-3.981-1.537-6.315c0-2.365 0.512-4.486 1.537-6.362s2.42-3.358 4.186-4.446 3.753-1.632 5.96-1.632c2.239 0 4.234 0.544 5.984 1.632s3.13 2.57 4.139 4.446 1.514 3.997 1.514 6.362zm-1.892 0c0-2.05-0.418-3.871-1.254-5.463-0.836-1.593-1.987-2.854-3.453-3.784-1.466-0.931-3.146-1.396-5.038-1.396-1.86 0-3.532 0.465-5.014 1.396-1.482 0.93-2.649 2.191-3.5 3.784-0.852 1.592-1.277 3.413-1.277 5.463 0 2.018 0.425 3.824 1.277 5.416 0.851 1.593 2.018 2.854 3.5 3.785 1.482 0.93 3.154 1.395 5.014 1.395 1.892 0 3.572-0.465 5.038-1.395 1.466-0.931 2.617-2.192 3.453-3.785 0.836-1.592 1.254-3.398 1.254-5.416z" fill-rule="nonzero"/>
<path d="m38.504 7.237h10.975c0.252 0 0.465 0.095 0.638 0.284 0.174 0.189 0.26 0.394 0.26 0.615 0 0.252-0.086 0.465-0.26 0.639-0.173 0.173-0.386 0.26-0.638 0.26h-10.975c-0.22 0-0.425-0.095-0.615-0.284-0.189-0.189-0.283-0.394-0.283-0.615 0-0.252 0.094-0.465 0.283-0.639 0.19-0.173 0.395-0.26 0.615-0.26zm4.825-6.953c0.284 0 0.513 0.094 0.686 0.284 0.173 0.189 0.26 0.41 0.26 0.662v24.645c0 1.04 0.134 1.805 0.402 2.294 0.268 0.488 0.607 0.804 1.017 0.946s0.804 0.213 1.183 0.213c0.221 0 0.41-0.032 0.567-0.095 0.158-0.063 0.347-0.095 0.568-0.095s0.41 0.087 0.568 0.261c0.157 0.173 0.236 0.37 0.236 0.591 0 0.284-0.181 0.528-0.544 0.733-0.362 0.205-0.812 0.307-1.348 0.307-0.189 0-0.528-7e-3 -1.017-0.023s-1.009-0.158-1.561-0.426-1.017-0.757-1.395-1.466c-0.379-0.71-0.568-1.758-0.568-3.146v-24.739c0-0.252 0.095-0.473 0.284-0.662 0.189-0.19 0.41-0.284 0.662-0.284z" fill-rule="nonzero"/>
<path d="m83.158 27.246c-0.221-0.378-0.323-0.686-0.308-0.922 0.016-0.237 0.135-0.434 0.355-0.591 0.158-0.158 0.371-0.229 0.639-0.213s0.497 0.134 0.686 0.355c0.82 1.166 1.868 2.112 3.145 2.838 1.278 0.725 2.783 1.088 4.518 1.088 1.04 0 2.042-0.174 3.003-0.521 0.962-0.347 1.751-0.867 2.366-1.561 0.615-0.693 0.922-1.545 0.922-2.554 0-1.072-0.3-1.932-0.899-2.578s-1.372-1.159-2.318-1.537c-0.946-0.379-1.939-0.694-2.98-0.946-1.103-0.284-2.152-0.607-3.145-0.97-0.994-0.363-1.869-0.82-2.626-1.372-0.756-0.552-1.356-1.206-1.797-1.963-0.442-0.757-0.662-1.656-0.662-2.696 0-1.23 0.331-2.334 0.993-3.311 0.662-0.978 1.593-1.743 2.791-2.295 1.198-0.551 2.586-0.827 4.163-0.827 0.756 0 1.561 0.094 2.412 0.283 0.851 0.19 1.703 0.513 2.554 0.97 0.852 0.457 1.64 1.096 2.365 1.916 0.253 0.189 0.371 0.418 0.355 0.686s-0.134 0.512-0.355 0.733c-0.189 0.126-0.394 0.189-0.615 0.189-0.22 0-0.409-0.094-0.567-0.284-0.82-0.914-1.774-1.592-2.862-2.034-1.088-0.441-2.247-0.662-3.477-0.662-1.04 0-2.01 0.174-2.909 0.52-0.899 0.347-1.632 0.86-2.199 1.538-0.568 0.678-0.852 1.537-0.852 2.578 0.063 0.977 0.402 1.782 1.017 2.412 0.615 0.631 1.435 1.151 2.46 1.561s2.184 0.789 3.477 1.135c1.04 0.253 2.01 0.544 2.909 0.876 0.899 0.331 1.687 0.749 2.365 1.253 0.678 0.505 1.214 1.135 1.608 1.892s0.591 1.703 0.591 2.838c0 1.325-0.354 2.468-1.064 3.43-0.709 0.962-1.687 1.703-2.933 2.223-1.245 0.52-2.672 0.781-4.28 0.781-1.64 0-3.217-0.332-4.731-0.994-1.513-0.662-2.885-1.75-4.115-3.264z" fill-rule="nonzero"/>
<path d="m115.09 7.143c2.113 0 3.989 0.52 5.629 1.561 1.64 1.04 2.941 2.467 3.903 4.281 0.961 1.813 1.442 3.886 1.442 6.22 0 2.302-0.481 4.367-1.442 6.196-0.962 1.83-2.271 3.272-3.926 4.329-1.656 1.056-3.524 1.584-5.606 1.584-1.04 0-2.042-0.149-3.004-0.449-0.961-0.3-1.852-0.725-2.672-1.277s-1.569-1.238-2.247-2.058-1.269-1.75-1.774-2.791l0.615-0.662v15.468c0 0.252-0.087 0.473-0.26 0.662-0.174 0.189-0.402 0.284-0.686 0.284-0.252 0-0.473-0.095-0.662-0.284s-0.284-0.41-0.284-0.662v-31.456c0-0.253 0.087-0.473 0.26-0.662 0.174-0.19 0.402-0.284 0.686-0.284s0.512 0.094 0.686 0.284c0.173 0.189 0.26 0.409 0.26 0.662v6.054l-0.615-0.331c0.442-1.166 0.994-2.176 1.656-3.027s1.419-1.545 2.27-2.081c0.852-0.536 1.766-0.931 2.744-1.183 0.977-0.252 1.987-0.378 3.027-0.378zm-0.094 1.797c-1.798 0-3.383 0.442-4.754 1.325-1.372 0.883-2.452 2.089-3.241 3.618-0.788 1.53-1.182 3.304-1.182 5.322 0 1.987 0.394 3.76 1.182 5.321 0.789 1.561 1.869 2.783 3.241 3.666 1.371 0.883 2.956 1.325 4.754 1.325 1.766 0 3.334-0.442 4.706-1.325s2.46-2.105 3.264-3.666 1.206-3.334 1.206-5.321-0.402-3.753-1.206-5.298-1.892-2.759-3.264-3.642-2.94-1.325-4.706-1.325z" fill-rule="nonzero"/>
<path d="m151.56 19.11c0 2.334-0.504 4.439-1.513 6.315s-2.389 3.359-4.139 4.447-3.745 1.632-5.984 1.632c-2.207 0-4.194-0.544-5.96-1.632s-3.161-2.571-4.186-4.447-1.538-3.981-1.538-6.315c0-2.365 0.513-4.486 1.538-6.362s2.42-3.358 4.186-4.446 3.753-1.632 5.96-1.632c2.239 0 4.234 0.544 5.984 1.632s3.13 2.57 4.139 4.446 1.513 3.997 1.513 6.362zm-1.892 0c0-2.05-0.417-3.871-1.253-5.463-0.836-1.593-1.987-2.854-3.453-3.784-1.467-0.931-3.146-1.396-5.038-1.396-1.861 0-3.532 0.465-5.014 1.396-1.482 0.93-2.649 2.191-3.5 3.784-0.852 1.592-1.278 3.413-1.278 5.463 0 2.018 0.426 3.824 1.278 5.416 0.851 1.593 2.018 2.854 3.5 3.785 1.482 0.93 3.153 1.395 5.014 1.395 1.892 0 3.571-0.465 5.038-1.395 1.466-0.931 2.617-2.192 3.453-3.785 0.836-1.592 1.253-3.398 1.253-5.416z" fill-rule="nonzero"/>
<path d="m153.21 7.237h10.974c0.253 0 0.465 0.095 0.639 0.284 0.173 0.189 0.26 0.394 0.26 0.615 0 0.252-0.087 0.465-0.26 0.639-0.174 0.173-0.386 0.26-0.639 0.26h-10.974c-0.221 0-0.426-0.095-0.615-0.284s-0.284-0.394-0.284-0.615c0-0.252 0.095-0.465 0.284-0.639 0.189-0.173 0.394-0.26 0.615-0.26zm4.825-6.953c0.284 0 0.512 0.094 0.686 0.284 0.173 0.189 0.26 0.41 0.26 0.662v24.645c0 1.04 0.134 1.805 0.402 2.294 0.268 0.488 0.607 0.804 1.017 0.946s0.804 0.213 1.183 0.213c0.22 0 0.41-0.032 0.567-0.095 0.158-0.063 0.347-0.095 0.568-0.095s0.41 0.087 0.568 0.261c0.157 0.173 0.236 0.37 0.236 0.591 0 0.284-0.181 0.528-0.544 0.733s-0.812 0.307-1.348 0.307c-0.189 0-0.528-7e-3 -1.017-0.023s-1.009-0.158-1.561-0.426-1.017-0.757-1.395-1.466c-0.379-0.71-0.568-1.758-0.568-3.146v-24.739c0-0.252 0.094-0.473 0.284-0.662 0.189-0.19 0.41-0.284 0.662-0.284z" fill-rule="nonzero"/>
<circle cx="68.34" cy="20.246" r="7.606" fill="#D69E2E"/>
</svg>
